<svg width="1800" height="560" viewBox="0 0 1800 560" fill="none" xmlns="http://www.w3.org/2000/svg">
<path d="M289.526 273.961C289.526 255.761 281.226 246.661 264.626 246.661C254.026 246.661 239.726 249.461 221.726 255.061L212.126 236.161C229.326 227.161 247.926 222.661 267.926 222.661C292.126 222.661 306.926 229.861 312.326 244.261C315.126 251.661 316.526 261.461 316.526 273.661V337.561C316.526 351.961 320.626 363.361 328.826 371.761L312.926 387.361C309.326 385.161 305.626 381.961 301.826 377.761C298.226 373.361 295.726 369.061 294.326 364.861H293.426C282.426 379.861 267.226 387.361 247.826 387.361C219.226 387.361 204.926 372.461 204.926 342.661C204.926 316.261 223.526 300.361 260.726 294.961L289.526 290.761V273.961ZM233.726 345.961C233.726 357.561 240.826 363.361 255.026 363.361C269.426 363.361 280.926 358.361 289.526 348.361V311.761C264.326 315.161 248.826 319.161 243.026 323.761C236.826 328.761 233.726 336.161 233.726 345.961ZM428.559 222.661C433.759 222.661 437.659 223.161 440.259 224.161C443.059 224.961 445.359 225.661 447.159 226.261C448.959 226.661 450.059 226.961 450.459 227.161L445.659 254.161C439.659 252.161 432.459 251.161 424.059 251.161C415.859 251.161 408.359 254.761 401.559 261.961C394.959 268.961 391.659 277.461 391.659 287.461V383.761H364.659V269.461L362.259 227.761L384.159 224.761L387.459 255.061H388.659C392.059 245.261 397.159 237.461 403.959 231.661C410.959 225.661 419.159 222.661 428.559 222.661ZM538.129 222.661C543.329 222.661 547.229 223.161 549.829 224.161C552.629 224.961 554.929 225.661 556.729 226.261C558.529 226.661 559.629 226.961 560.03 227.161L555.229 254.161C549.229 252.161 542.029 251.161 533.63 251.161C525.429 251.161 517.929 254.761 511.129 261.961C504.529 268.961 501.229 277.461 501.229 287.461V383.761H474.229V269.461L471.829 227.761L493.729 224.761L497.029 255.061H498.229C501.629 245.261 506.729 237.461 513.529 231.661C520.529 225.661 528.729 222.661 538.129 222.661ZM610.8 383.761H583.8V227.761L610.8 224.761V383.761ZM596.1 216.061C583.9 216.061 577.8 209.261 577.8 195.661C577.8 190.661 579.4 186.361 582.6 182.761C586 179.161 591.2 177.361 598.2 177.361C610.4 177.361 616.5 184.161 616.5 197.761C616.5 202.761 614.8 207.061 611.4 210.661C608.2 214.261 603.1 216.061 596.1 216.061ZM715.5 222.661C732.7 222.661 745.4 227.861 753.6 238.261C760.4 246.661 764.6 260.761 766.2 280.561C766.8 288.361 767.1 298.061 767.1 309.661L754.8 311.461H677.1C677.1 336.661 683.8 352.561 697.2 359.161C702.8 361.961 710.5 363.361 720.3 363.361C730.1 363.361 741.4 360.161 754.2 353.761L762.6 372.361C746 382.361 729.3 387.361 712.5 387.361C669.7 387.361 648.3 360.361 648.3 306.361C648.3 280.761 653.9 260.461 665.1 245.461C676.5 230.261 693.3 222.661 715.5 222.661ZM738.3 290.161C738.3 274.161 736.7 262.961 733.5 256.561C730.3 249.961 722.9 246.661 711.3 246.661C699.9 246.661 691.8 250.561 687 258.361C682.2 265.961 679.2 276.561 678 290.161H738.3ZM867.133 222.661C872.333 222.661 876.233 223.161 878.833 224.161C881.633 224.961 883.933 225.661 885.733 226.261C887.533 226.661 888.633 226.961 889.033 227.161L884.233 254.161C878.233 252.161 871.033 251.161 862.633 251.161C854.433 251.161 846.933 254.761 840.133 261.961C833.533 268.961 830.233 277.461 830.233 287.461V383.761H803.233V269.461L800.833 227.761L822.733 224.761L826.033 255.061H827.233C830.633 245.261 835.733 237.461 842.533 231.661C849.533 225.661 857.733 222.661 867.133 222.661ZM969.504 222.661C986.704 222.661 999.404 227.861 1007.6 238.261C1014.4 246.661 1018.6 260.761 1020.2 280.561C1020.8 288.361 1021.1 298.061 1021.1 309.661L1008.8 311.461H931.104C931.104 336.661 937.804 352.561 951.204 359.161C956.804 361.961 964.504 363.361 974.304 363.361C984.104 363.361 995.404 360.161 1008.2 353.761L1016.6 372.361C1000 382.361 983.304 387.361 966.504 387.361C923.704 387.361 902.304 360.361 902.304 306.361C902.304 280.761 907.904 260.461 919.104 245.461C930.504 230.261 947.304 222.661 969.504 222.661ZM992.304 290.161C992.304 274.161 990.704 262.961 987.504 256.561C984.304 249.961 976.904 246.661 965.304 246.661C953.904 246.661 945.804 250.561 941.004 258.361C936.204 265.961 933.204 276.561 932.004 290.161H992.304Z" fill="black"/>
<path d="M1267.53 273.961C1267.53 255.761 1259.23 246.661 1242.63 246.661C1232.03 246.661 1217.73 249.461 1199.73 255.061L1190.13 236.161C1207.33 227.161 1225.93 222.661 1245.93 222.661C1270.13 222.661 1284.93 229.861 1290.33 244.261C1293.13 251.661 1294.53 261.461 1294.53 273.661V337.561C1294.53 351.961 1298.63 363.361 1306.83 371.761L1290.93 387.361C1287.33 385.161 1283.63 381.961 1279.83 377.761C1276.23 373.361 1273.73 369.061 1272.33 364.861H1271.43C1260.43 379.861 1245.23 387.361 1225.83 387.361C1197.23 387.361 1182.93 372.461 1182.93 342.661C1182.93 316.261 1201.53 300.361 1238.73 294.961L1267.53 290.761V273.961ZM1211.73 345.961C1211.73 357.561 1218.83 363.361 1233.03 363.361C1247.43 363.361 1258.93 358.361 1267.53 348.361V311.761C1242.33 315.161 1226.83 319.161 1221.03 323.761C1214.83 328.761 1211.73 336.161 1211.73 345.961ZM1451.26 245.761C1459.46 258.761 1463.56 277.361 1463.56 301.561C1463.56 334.761 1456.36 357.761 1441.96 370.561C1429.36 381.761 1413.56 387.361 1394.56 387.361C1375.56 387.361 1357.76 381.561 1341.16 369.961V160.261L1368.16 157.261V224.761L1366.66 239.761L1367.56 240.361C1376.76 228.561 1390.56 222.661 1408.96 222.661C1427.36 222.661 1441.46 230.361 1451.26 245.761ZM1422.76 354.061C1430.76 346.061 1434.76 330.361 1434.76 306.961C1434.76 283.561 1431.76 267.661 1425.76 259.261C1419.96 250.861 1411.36 246.661 1399.96 246.661C1385.36 246.661 1374.76 251.561 1368.16 261.361V354.961C1375.96 360.761 1385.36 363.661 1396.36 363.661C1407.56 363.661 1416.36 360.461 1422.76 354.061ZM1505.66 248.161C1510.86 240.361 1518.06 234.161 1527.26 229.561C1536.66 224.961 1547.56 222.661 1559.96 222.661C1572.56 222.661 1583.06 225.061 1591.46 229.861C1600.06 234.661 1606.36 241.361 1610.36 249.961C1617.36 265.361 1620.86 284.261 1620.86 306.661C1620.86 328.261 1615.86 346.561 1605.86 361.561C1600.66 369.561 1593.36 375.861 1583.96 380.461C1574.76 385.061 1563.86 387.361 1551.26 387.361C1538.86 387.361 1528.36 384.961 1519.76 380.161C1511.36 375.361 1505.16 368.561 1501.16 359.761C1494.16 344.561 1490.66 325.761 1490.66 303.361C1490.66 281.761 1495.66 263.361 1505.66 248.161ZM1582.16 257.461C1579.56 254.261 1575.96 251.661 1571.36 249.661C1566.76 247.661 1561.16 246.661 1554.56 246.661C1548.16 246.661 1542.66 247.861 1538.06 250.261C1533.46 252.661 1529.96 255.561 1527.56 258.961C1525.16 262.161 1523.36 266.761 1522.16 272.761C1520.36 281.761 1519.46 291.461 1519.46 301.861C1519.46 312.261 1519.66 319.961 1520.06 324.961C1520.46 329.761 1521.36 334.761 1522.76 339.961C1524.36 345.161 1526.56 349.361 1529.36 352.561C1535.36 359.761 1544.56 363.361 1556.96 363.361C1563.36 363.361 1568.86 362.161 1573.46 359.761C1578.06 357.361 1581.56 354.561 1583.96 351.361C1586.36 347.961 1588.16 343.261 1589.36 337.261C1591.16 328.261 1592.06 318.561 1592.06 308.161C1592.06 297.761 1591.86 290.161 1591.46 285.361C1591.06 280.361 1590.06 275.261 1588.46 270.061C1587.06 264.861 1584.96 260.661 1582.16 257.461ZM1722.38 222.661C1727.58 222.661 1731.48 223.161 1734.08 224.161C1736.88 224.961 1739.18 225.661 1740.98 226.261C1742.78 226.661 1743.88 226.961 1744.28 227.161L1739.48 254.161C1733.48 252.161 1726.28 251.161 1717.88 251.161C1709.68 251.161 1702.18 254.761 1695.38 261.961C1688.78 268.961 1685.48 277.461 1685.48 287.461V383.761H1658.48V269.461L1656.08 227.761L1677.98 224.761L1681.28 255.061H1682.48C1685.88 245.261 1690.98 237.461 1697.78 231.661C1704.78 225.661 1712.98 222.661 1722.38 222.661Z" fill="black"/>
<path d="M1256.46 421.717C1259.23 421.712 1261.47 423.947 1261.47 426.708L1261.5 442.708C1261.51 445.469 1259.27 447.711 1256.51 447.716L1169.21 447.869L1136 421.926L1256.46 421.717Z" fill="#FECC02"/>
<path d="M1086.23 102.806C1086.23 100.045 1088.46 97.8028 1091.23 97.798L1107.23 97.7704C1109.99 97.7656 1112.23 99.9997 1112.23 102.761L1112.76 403.768L1086.72 383.427L1086.23 102.806Z" fill="#FF0303"/>
<path d="M180.586 427.914C182.29 430.087 181.909 433.23 179.736 434.934L167.297 444.688C165.124 446.392 161.981 446.011 160.277 443.838L108.586 377.913V336.089L180.586 427.914ZM73.5751 299.542C75.7482 297.838 78.8907 298.219 80.5947 300.392L82.2255 302.471V344.295L60.2861 316.316C58.5824 314.143 58.9628 311 61.1357 309.296L73.5751 299.542Z" fill="black"/>
<path d="M82.2255 325.554L77.0595 329.605C74.8865 331.309 71.7438 330.928 70.04 328.756L60.2861 316.316C58.5822 314.143 58.9626 311 61.1357 309.296L82.2255 292.759V325.554ZM324.051 103.144C326.224 101.441 329.366 101.821 331.07 103.994L340.824 116.433C342.528 118.606 342.148 121.749 339.975 123.453L108.586 304.885V272.09L324.051 103.144Z" fill="black"/>
<path d="M77.3604 101.722C79.8504 101.722 81.9141 103.543 82.2959 105.925C82.2501 106.197 82.2256 106.476 82.2256 106.761V440.834C82.2256 441.105 82.2476 441.371 82.2891 441.63C81.8914 443.994 79.8371 445.795 77.3604 445.795H61C58.2388 445.795 56.0001 443.556 56 440.795V106.722C56.0001 103.961 58.2388 101.722 61 101.722H77.3604Z" fill="black"/>
</svg>
