<svg width="2300" height="560" viewBox="0 0 2300 560" fill="none" xmlns="http://www.w3.org/2000/svg">
<g filter="url(#filter0_d_14_325)">
<rect x="61" y="50" width="395" height="460" fill="white"/>
</g>
<rect x="115.325" y="305.65" width="200" height="30" rx="5" transform="rotate(51.9 115.325 305.65)" fill="#FECC02"/>
<rect x="406.491" y="77.3466" width="30" height="400" rx="5" transform="rotate(51.9 406.491 77.3466)" fill="#FF0303"/>
<rect x="90.4535" y="79.3717" width="30" height="400" rx="5" fill="black"/>
<rect x="120.453" y="79.3717" width="30" height="400" rx="5" fill="white"/>
<path d="M785.3 269.2C785.3 251 777 241.9 760.4 241.9C749.8 241.9 735.5 244.7 717.5 250.3L707.9 231.4C725.1 222.4 743.7 217.9 763.7 217.9C787.9 217.9 802.7 225.1 808.1 239.5C810.9 246.9 812.3 256.7 812.3 268.9V332.8C812.3 347.2 816.4 358.6 824.6 367L808.7 382.6C805.1 380.4 801.4 377.2 797.6 373C794 368.6 791.5 364.3 790.1 360.1H789.2C778.2 375.1 763 382.6 743.6 382.6C715 382.6 700.7 367.7 700.7 337.9C700.7 311.5 719.3 295.6 756.5 290.2L785.3 286V269.2ZM729.5 341.2C729.5 352.8 736.6 358.6 750.8 358.6C765.2 358.6 776.7 353.6 785.3 343.6V307C760.1 310.4 744.6 314.4 738.8 319C732.6 324 729.5 331.4 729.5 341.2ZM924.334 217.9C929.534 217.9 933.434 218.4 936.034 219.4C938.834 220.2 941.134 220.9 942.934 221.5C944.734 221.9 945.834 222.2 946.234 222.4L941.434 249.4C935.434 247.4 928.234 246.4 919.834 246.4C911.634 246.4 904.134 250 897.334 257.2C890.734 264.2 887.434 272.7 887.434 282.7V379H860.434V264.7L858.034 223L879.934 220L883.234 250.3H884.434C887.834 240.5 892.934 232.7 899.734 226.9C906.734 220.9 914.934 217.9 924.334 217.9ZM1033.9 217.9C1039.1 217.9 1043 218.4 1045.6 219.4C1048.4 220.2 1050.7 220.9 1052.5 221.5C1054.3 221.9 1055.4 222.2 1055.8 222.4L1051 249.4C1045 247.4 1037.8 246.4 1029.4 246.4C1021.2 246.4 1013.7 250 1006.9 257.2C1000.3 264.2 997.004 272.7 997.004 282.7V379H970.004V264.7L967.604 223L989.504 220L992.804 250.3H994.004C997.404 240.5 1002.5 232.7 1009.3 226.9C1016.3 220.9 1024.5 217.9 1033.9 217.9ZM1106.57 379H1079.57V223L1106.57 220V379ZM1091.87 211.3C1079.67 211.3 1073.57 204.5 1073.57 190.9C1073.57 185.9 1075.17 181.6 1078.37 178C1081.77 174.4 1086.97 172.6 1093.97 172.6C1106.17 172.6 1112.27 179.4 1112.27 193C1112.27 198 1110.57 202.3 1107.17 205.9C1103.97 209.5 1098.87 211.3 1091.87 211.3ZM1211.27 217.9C1228.47 217.9 1241.17 223.1 1249.37 233.5C1256.17 241.9 1260.37 256 1261.97 275.8C1262.57 283.6 1262.87 293.3 1262.87 304.9L1250.57 306.7H1172.87C1172.87 331.9 1179.57 347.8 1192.97 354.4C1198.57 357.2 1206.27 358.6 1216.07 358.6C1225.87 358.6 1237.17 355.4 1249.97 349L1258.37 367.6C1241.77 377.6 1225.07 382.6 1208.27 382.6C1165.47 382.6 1144.07 355.6 1144.07 301.6C1144.07 276 1149.67 255.7 1160.87 240.7C1172.27 225.5 1189.07 217.9 1211.27 217.9ZM1234.07 285.4C1234.07 269.4 1232.47 258.2 1229.27 251.8C1226.07 245.2 1218.67 241.9 1207.07 241.9C1195.67 241.9 1187.57 245.8 1182.77 253.6C1177.97 261.2 1174.97 271.8 1173.77 285.4H1234.07ZM1362.91 217.9C1368.11 217.9 1372.01 218.4 1374.61 219.4C1377.41 220.2 1379.71 220.9 1381.51 221.5C1383.31 221.9 1384.41 222.2 1384.81 222.4L1380.01 249.4C1374.01 247.4 1366.81 246.4 1358.41 246.4C1350.21 246.4 1342.71 250 1335.91 257.2C1329.31 264.2 1326.01 272.7 1326.01 282.7V379H1299.01V264.7L1296.61 223L1318.51 220L1321.81 250.3H1323.01C1326.41 240.5 1331.51 232.7 1338.31 226.9C1345.31 220.9 1353.51 217.9 1362.91 217.9ZM1465.28 217.9C1482.48 217.9 1495.18 223.1 1503.38 233.5C1510.18 241.9 1514.38 256 1515.98 275.8C1516.58 283.6 1516.88 293.3 1516.88 304.9L1504.58 306.7H1426.88C1426.88 331.9 1433.58 347.8 1446.98 354.4C1452.58 357.2 1460.28 358.6 1470.08 358.6C1479.88 358.6 1491.18 355.4 1503.98 349L1512.38 367.6C1495.78 377.6 1479.08 382.6 1462.28 382.6C1419.48 382.6 1398.08 355.6 1398.08 301.6C1398.08 276 1403.68 255.7 1414.88 240.7C1426.28 225.5 1443.08 217.9 1465.28 217.9ZM1488.08 285.4C1488.08 269.4 1486.48 258.2 1483.28 251.8C1480.08 245.2 1472.68 241.9 1461.08 241.9C1449.68 241.9 1441.58 245.8 1436.78 253.6C1431.98 261.2 1428.98 271.8 1427.78 285.4H1488.08Z" fill="black"/>
<path d="M1763.3 269.2C1763.3 251 1755 241.9 1738.4 241.9C1727.8 241.9 1713.5 244.7 1695.5 250.3L1685.9 231.4C1703.1 222.4 1721.7 217.9 1741.7 217.9C1765.9 217.9 1780.7 225.1 1786.1 239.5C1788.9 246.9 1790.3 256.7 1790.3 268.9V332.8C1790.3 347.2 1794.4 358.6 1802.6 367L1786.7 382.6C1783.1 380.4 1779.4 377.2 1775.6 373C1772 368.6 1769.5 364.3 1768.1 360.1H1767.2C1756.2 375.1 1741 382.6 1721.6 382.6C1693 382.6 1678.7 367.7 1678.7 337.9C1678.7 311.5 1697.3 295.6 1734.5 290.2L1763.3 286V269.2ZM1707.5 341.2C1707.5 352.8 1714.6 358.6 1728.8 358.6C1743.2 358.6 1754.7 353.6 1763.3 343.6V307C1738.1 310.4 1722.6 314.4 1716.8 319C1710.6 324 1707.5 331.4 1707.5 341.2ZM1947.03 241C1955.23 254 1959.33 272.6 1959.33 296.8C1959.33 330 1952.13 353 1937.73 365.8C1925.13 377 1909.33 382.6 1890.33 382.6C1871.33 382.6 1853.53 376.8 1836.93 365.2V155.5L1863.93 152.5V220L1862.43 235L1863.33 235.6C1872.53 223.8 1886.33 217.9 1904.73 217.9C1923.13 217.9 1937.23 225.6 1947.03 241ZM1918.53 349.3C1926.53 341.3 1930.53 325.6 1930.53 302.2C1930.53 278.8 1927.53 262.9 1921.53 254.5C1915.73 246.1 1907.13 241.9 1895.73 241.9C1881.13 241.9 1870.53 246.8 1863.93 256.6V350.2C1871.73 356 1881.13 358.9 1892.13 358.9C1903.33 358.9 1912.13 355.7 1918.53 349.3ZM2001.43 243.4C2006.63 235.6 2013.83 229.4 2023.03 224.8C2032.43 220.2 2043.33 217.9 2055.73 217.9C2068.33 217.9 2078.83 220.3 2087.23 225.1C2095.83 229.9 2102.13 236.6 2106.13 245.2C2113.13 260.6 2116.63 279.5 2116.63 301.9C2116.63 323.5 2111.63 341.8 2101.63 356.8C2096.43 364.8 2089.13 371.1 2079.73 375.7C2070.53 380.3 2059.63 382.6 2047.03 382.6C2034.63 382.6 2024.13 380.2 2015.53 375.4C2007.13 370.6 2000.93 363.8 1996.93 355C1989.93 339.8 1986.43 321 1986.43 298.6C1986.43 277 1991.43 258.6 2001.43 243.4ZM2077.93 252.7C2075.33 249.5 2071.73 246.9 2067.13 244.9C2062.53 242.9 2056.93 241.9 2050.33 241.9C2043.93 241.9 2038.43 243.1 2033.83 245.5C2029.23 247.9 2025.73 250.8 2023.33 254.2C2020.93 257.4 2019.13 262 2017.93 268C2016.13 277 2015.23 286.7 2015.23 297.1C2015.23 307.5 2015.43 315.2 2015.83 320.2C2016.23 325 2017.13 330 2018.53 335.2C2020.13 340.4 2022.33 344.6 2025.13 347.8C2031.13 355 2040.33 358.6 2052.73 358.6C2059.13 358.6 2064.63 357.4 2069.23 355C2073.83 352.6 2077.33 349.8 2079.73 346.6C2082.13 343.2 2083.93 338.5 2085.13 332.5C2086.93 323.5 2087.83 313.8 2087.83 303.4C2087.83 293 2087.63 285.4 2087.23 280.6C2086.83 275.6 2085.83 270.5 2084.23 265.3C2082.83 260.1 2080.73 255.9 2077.93 252.7ZM2218.15 217.9C2223.35 217.9 2227.25 218.4 2229.85 219.4C2232.65 220.2 2234.95 220.9 2236.75 221.5C2238.55 221.9 2239.65 222.2 2240.05 222.4L2235.25 249.4C2229.25 247.4 2222.05 246.4 2213.65 246.4C2205.45 246.4 2197.95 250 2191.15 257.2C2184.55 264.2 2181.25 272.7 2181.25 282.7V379H2154.25V264.7L2151.85 223L2173.75 220L2177.05 250.3H2178.25C2181.65 240.5 2186.75 232.7 2193.55 226.9C2200.55 220.9 2208.75 217.9 2218.15 217.9Z" fill="black"/>
<path d="M1752.24 416.956C1755 416.951 1757.24 419.185 1757.25 421.947L1757.28 437.947C1757.28 440.708 1755.05 442.95 1752.28 442.955L1664.98 443.108L1631.77 417.165L1752.24 416.956Z" fill="#FECC02"/>
<path d="M1582.01 98.0453C1582 95.2841 1584.24 93.0417 1587 93.0369L1603 93.0093C1605.76 93.0045 1608 95.2386 1608.01 97.9997L1608.53 399.007L1582.5 378.666L1582.01 98.0453Z" fill="#FF0303"/>
<path d="M676.36 423.153C678.064 425.326 677.684 428.469 675.511 430.173L663.071 439.927C660.898 441.631 657.756 441.25 656.052 439.077L604.36 373.152V331.328L676.36 423.153ZM569.35 294.781C571.523 293.077 574.665 293.458 576.369 295.631L578 297.71V339.534L556.06 311.555C554.357 309.382 554.737 306.239 556.91 304.535L569.35 294.781Z" fill="black"/>
<path d="M578 320.793L572.834 324.844C570.661 326.548 567.518 326.167 565.814 323.995L556.06 311.555C554.357 309.382 554.737 306.239 556.91 304.535L578 287.998V320.793ZM819.825 98.3833C821.998 96.6795 825.141 97.06 826.845 99.2329L836.599 111.672C838.302 113.845 837.922 116.988 835.749 118.692L604.36 300.124V267.329L819.825 98.3833Z" fill="black"/>
<path d="M573.135 96.9609C575.625 96.9609 577.688 98.7816 578.07 101.164C578.025 101.436 578 101.715 578 102V436.073C578 436.344 578.022 436.61 578.063 436.869C577.666 439.233 575.612 441.034 573.135 441.034H556.774C554.013 441.034 551.775 438.795 551.774 436.034V101.961C551.775 99.1997 554.013 96.9611 556.774 96.9609H573.135Z" fill="black"/>
<defs>
<filter id="filter0_d_14_325" x="26" y="15" width="465" height="530" filterUnits="userSpaceOnUse" color-interpolation-filters="sRGB">
<feFlood flood-opacity="0" result="BackgroundImageFix"/>
<feColorMatrix in="SourceAlpha" type="matrix" values="0 0 0 0 0 0 0 0 0 0 0 0 0 0 0 0 0 0 127 0" result="hardAlpha"/>
<feMorphology radius="5" operator="dilate" in="SourceAlpha" result="effect1_dropShadow_14_325"/>
<feOffset/>
<feGaussianBlur stdDeviation="15"/>
<feComposite in2="hardAlpha" operator="out"/>
<feColorMatrix type="matrix" values="0 0 0 0 0 0 0 0 0 0 0 0 0 0 0 0 0 0 0.25 0"/>
<feBlend mode="normal" in2="BackgroundImageFix" result="effect1_dropShadow_14_325"/>
<feBlend mode="normal" in="SourceGraphic" in2="effect1_dropShadow_14_325" result="shape"/>
</filter>
</defs>
</svg>
